<svg width="71" height="71" viewBox="0 0 71 71" fill="none" xmlns="http://www.w3.org/2000/svg">
<rect width="71" height="71" rx="20" fill="#FF0076"/>
<g clip-path="url(#clip0_1003_2578)">
<path d="M28.2522 18.1224C26.3902 18.2102 25.1186 18.5074 24.007 18.9442C22.8566 19.3925 21.8815 19.9942 20.9113 20.9679C19.9411 21.9416 19.3436 22.9174 18.8984 24.0696C18.4676 25.1836 18.1757 26.4562 18.0934 28.3193C18.0112 30.1823 17.993 30.7812 18.0021 35.5335C18.0112 40.2858 18.0322 40.8815 18.1225 42.7484C18.2114 44.61 18.5075 45.8812 18.9443 46.9932C19.3933 48.1436 19.9943 49.1184 20.9683 50.0889C21.9424 51.0595 22.9175 51.6555 24.0725 52.1014C25.1855 52.5316 26.4584 52.8249 28.3211 52.9064C30.1838 52.988 30.7834 53.0069 35.5343 52.9978C40.2852 52.9887 40.8833 52.9677 42.7499 52.8791C44.6164 52.7906 45.881 52.4924 46.9933 52.0577C48.1437 51.6076 49.1192 51.0077 50.089 50.0333C51.0589 49.0589 51.656 48.0824 52.1008 46.9295C52.532 45.8165 52.825 44.5435 52.9058 42.6822C52.9874 40.8143 53.0066 40.2179 52.9975 35.4663C52.9884 30.7147 52.9671 30.119 52.8785 28.2528C52.79 26.3866 52.4935 25.1192 52.0571 24.0066C51.6073 22.8561 51.0071 21.8821 50.0334 20.9108C49.0597 19.9396 48.0825 19.3428 46.9299 18.899C45.8162 18.4682 44.544 18.1745 42.6813 18.094C40.8186 18.0135 40.219 17.9929 35.4664 18.002C30.7137 18.0111 30.1187 18.0314 28.2522 18.1224ZM28.4566 49.7582C26.7503 49.684 25.8239 49.4005 25.2065 49.1632C24.3889 48.8482 23.8065 48.4674 23.1912 47.858C22.5759 47.2487 22.1979 46.6642 21.8787 45.8483C21.6389 45.2309 21.3502 44.3055 21.2704 42.5993C21.1836 40.7551 21.1654 40.2014 21.1552 35.5293C21.1451 30.8571 21.1629 30.3041 21.2438 28.4593C21.3166 26.7544 21.6018 25.8269 21.8388 25.2099C22.1538 24.3912 22.5332 23.8099 23.1439 23.1949C23.7547 22.58 24.3374 22.2013 25.154 21.8821C25.7707 21.6413 26.6961 21.355 28.4016 21.2738C30.2472 21.1863 30.8002 21.1688 35.4716 21.1586C40.1431 21.1485 40.6975 21.166 42.5437 21.2472C44.2486 21.3214 45.1764 21.6038 45.7928 21.8422C46.6107 22.1572 47.1928 22.5355 47.8077 23.1473C48.4227 23.7591 48.8017 24.3398 49.1209 25.1581C49.3621 25.773 49.6484 26.6981 49.7289 28.4047C49.8167 30.2502 49.8367 30.8036 49.8451 35.4747C49.8535 40.1458 49.837 40.7005 49.7562 42.5447C49.6816 44.2509 49.3988 45.1777 49.1612 45.7958C48.8462 46.6131 48.4664 47.1958 47.8553 47.8104C47.2442 48.425 46.6622 48.8037 45.8453 49.1229C45.2293 49.3634 44.3028 49.6504 42.5987 49.7316C40.7531 49.8184 40.2001 49.8366 35.5269 49.8467C30.8537 49.8569 30.3025 49.838 28.4569 49.7582M42.7229 26.1468C42.7236 26.5622 42.8475 26.968 43.0789 27.313C43.3102 27.658 43.6387 27.9266 44.0227 28.0849C44.4067 28.2432 44.8291 28.284 45.2363 28.2022C45.6436 28.1205 46.0174 27.9198 46.3106 27.6255C46.6038 27.3313 46.8031 26.9567 46.8834 26.5492C46.9636 26.1416 46.9212 25.7194 46.7615 25.336C46.6019 24.9525 46.332 24.6251 45.9862 24.395C45.6404 24.1649 45.2341 24.0425 44.8187 24.0433C44.2619 24.0445 43.7283 24.2667 43.3353 24.6611C42.9423 25.0556 42.722 25.59 42.7229 26.1468ZM26.5144 35.5174C26.5242 40.4804 30.5548 44.4945 35.5168 44.4851C40.4787 44.4756 44.4957 40.4454 44.4862 35.4824C44.4768 30.5194 40.4451 26.5042 35.4825 26.514C30.5198 26.5238 26.505 30.5551 26.5144 35.5174ZM29.6665 35.5111C29.6643 34.3573 30.0042 33.2288 30.6432 32.2683C31.2823 31.3077 32.1919 30.5582 33.257 30.1146C34.322 29.6709 35.4947 29.5531 36.6267 29.7759C37.7587 29.9988 38.7992 30.5523 39.6167 31.3665C40.4341 32.1807 40.9918 33.219 41.2191 34.3502C41.4464 35.4813 41.3332 36.6544 40.8938 37.7212C40.4544 38.788 39.7085 39.7006 38.7505 40.3435C37.7924 40.9863 36.6653 41.3307 35.5115 41.333C34.7455 41.3346 33.9866 41.1853 33.2782 40.8936C32.5698 40.6018 31.9259 40.1734 31.3831 39.6328C30.8403 39.0922 30.4093 38.4499 30.1148 37.7427C29.8203 37.0355 29.668 36.2772 29.6665 35.5111Z" fill="white"/>
</g>
<defs>
<clipPath id="clip0_1003_2578">
<rect width="35" height="35" fill="white" transform="translate(18 18)"/>
</clipPath>
</defs>
</svg>
