<svg width="83" height="83" viewBox="0 0 83 83" fill="none" xmlns="http://www.w3.org/2000/svg">
<path d="M43.2514 0C30.276 0 18.7423 7.20857 15.8589 17.3006C7.20857 20.184 0 27.3926 0 41.8097C0 56.2269 7.20857 64.8772 14.4171 66.3189C18.7423 76.4109 31.7177 82.1777 41.8097 82.1777C51.9017 82.1777 61.9937 73.5275 64.8772 66.3189C73.5275 63.4354 82.1777 49.0183 82.1777 40.368C82.1777 31.7177 74.9692 18.7423 67.7606 15.8589C63.4354 10.092 56.2269 0 43.2514 0Z" fill="#A91E27"/>
<path d="M41.8101 70.644L30.2764 53.3434C30.2764 49.0183 36.9244 44.6931 41.8101 44.6931C46.6958 44.6931 53.3438 47.5765 53.3438 53.3434L41.8101 70.644Z" fill="#EFD295"/>
</svg>
